<svg id="Layer_1" enable-background="new 0 0 512 512" height="512" viewBox="0 0 512 512" width="512" xmlns="http://www.w3.org/2000/svg"><g><g fill="#97b0bf"><path d="m141.22 391.587c-6.37 30.009-17.83 55.009-18.32 56.059-1.09 2.38-3.34 4.01-5.94 4.31-9.14 1.07-18.63 1.43-27.24 1.44h-.34c-16.81 0-30.21-1.34-31.05-1.43-3.4-.35-6.14-2.96-6.65-6.34-4.57-30.179-.18-58.209.01-59.389.6-3.73 3.85-6.42 7.67-6.31l52.81 1.84 21.97.77c2.22.08 4.28 1.13 5.65 2.88 1.36 1.74 1.89 4.01 1.43 6.17z"/><path d="m460.32 445.626c-.51 3.38-3.25 5.99-6.65 6.34-.7.07-10.05 1.01-22.82 1.33-2.62.06-5.37.1-8.23.1-8.7 0-18.32-.36-27.58-1.44-2.6-.3-4.85-1.93-5.94-4.31-.49-1.05-11.95-26.049-18.32-56.059-.46-2.16.07-4.43 1.43-6.17 1.37-1.75 3.43-2.8 5.65-2.88l49.25-1.72 25.53-.89c3.82-.12 7.07 2.58 7.67 6.31.19 1.18 4.58 29.21.01 59.389z"/></g><path d="m141.22 391.587c-6.37 30.009-17.83 55.009-18.32 56.059-1.09 2.38-3.34 4.01-5.94 4.31-9.14 1.07-18.63 1.43-27.24 1.44 10.7-30.399 18.67-57.969 22.45-71.629l21.97.77c2.22.08 4.28 1.13 5.65 2.88 1.36 1.74 1.89 4.01 1.43 6.17z" fill="#7c97a5"/><path d="m460.32 445.626c-.51 3.38-3.25 5.99-6.65 6.34-.7.07-10.05 1.01-22.82 1.33.14-33.379-2.21-59.289-3.74-72.479l25.53-.89c3.82-.12 7.07 2.58 7.67 6.31.19 1.18 4.58 29.21.01 59.389z" fill="#7c97a5"/><path d="m435.38 108.673c.09 2.05-.66 4.04-2.07 5.51-1.42 1.48-3.38 2.31-5.42 2.31h-343.78c-2.04 0-4-.83-5.42-2.31-1.41-1.47-2.16-3.46-2.07-5.51.96-22.7 2.13-39.019 2.14-39.179.27-3.79 3.34-6.78 7.13-6.95.85-.04 86.03-3.94 170.11-3.94 52.11 0 104.64 1.5 137.26 2.64 20.01.71 32.52 1.28 32.85 1.3 3.79.17 6.86 3.16 7.13 6.95.01.16 1.18 16.479 2.14 39.179z" fill="#97b0bf"/><path d="m435.38 108.673c.09 2.05-.66 4.04-2.07 5.51-1.42 1.48-3.38 2.31-5.42 2.31h-30.4c-.65-27.789-4.23-55.249-4.23-55.249 20.01.71 32.52 1.28 32.85 1.3 3.79.17 6.86 3.16 7.13 6.95.01.16 1.18 16.479 2.14 39.179z" fill="#7c97a5"/><path d="m512 248.68c0 67.969-4.9 136.837-4.95 137.527-.27 3.79-3.34 6.78-7.13 6.95-.32.02-8.96.41-23.72.99-41.48 1.62-131.27 4.66-220.2 4.66-120.56 0-242.7-5.59-243.92-5.65-3.79-.17-6.86-3.16-7.13-6.95-.05-.69-4.95-69.558-4.95-137.527 0-67.989 4.9-136.857 4.95-137.537.27-3.79 3.34-6.78 7.13-6.96 1.22-.05 123.36-5.65 243.92-5.65 88.64 0 178.14 3.03 219.8 4.65 15 .58 23.8.98 24.12 1 3.79.18 6.86 3.17 7.13 6.96.05.68 4.95 69.548 4.95 137.537z" fill="#58768c"/><path d="m457 248.68c0 25.39-.7 53.789-2.07 84.408-.17 3.91-3.32 7.03-7.23 7.16-6.7.24-13.88.48-21.47.72-46.64 1.47-108.64 2.93-170.23 2.93-71.61 0-143.77-1.98-191.7-3.65-3.91-.13-7.06-3.25-7.23-7.16-1.37-30.589-2.07-58.998-2.07-84.408 0-25.369.7-53.779 2.07-84.428.17-3.9 3.32-7.02 7.23-7.16 47.94-1.66 120.11-3.65 191.7-3.65 61.41 0 123.25 1.46 169.86 2.93 7.72.24 15.03.48 21.84.72 3.91.14 7.06 3.26 7.23 7.16 1.37 30.649 2.07 59.059 2.07 84.428z" fill="#77e0ab"/><path d="m457 248.68c0 25.39-.7 53.789-2.07 84.408-.17 3.91-3.32 7.03-7.23 7.16-6.7.24-13.88.48-21.47.72 3.09-73.249 1.58-139.827-.37-184.596 7.72.24 15.03.48 21.84.72 3.91.14 7.06 3.26 7.23 7.16 1.37 30.649 2.07 59.059 2.07 84.428z" fill="#65c1b0"/><path d="m512 248.68c0 67.969-4.9 136.837-4.95 137.527-.27 3.79-3.34 6.78-7.13 6.95-.32.02-8.96.41-23.72.99 10.03-137.777 1.52-265.365-.4-290.964 15 .58 23.8.98 24.12 1 3.79.18 6.86 3.17 7.13 6.96.05.68 4.95 69.548 4.95 137.537z" fill="#3e5868"/><g fill="#c0ffde"><path d="m147.047 278.759c-.149.021-10.896 1.506-24.454 1.267 33.43-33.195 33.059-53.915 29.368-63.792-3.718-9.951-13.479-16.132-25.477-16.132-11.224 0-19.479 3.224-24.536 9.581-6.716 8.443-4.615 18.622-4.354 19.755.932 4.036 4.957 6.554 8.995 5.62 4.036-.932 6.552-4.959 5.62-8.995-.009-.04-.748-4.244 1.478-7.043 2.576-3.239 8.381-3.918 12.797-3.918 2.719 0 9.273.622 11.425 6.381 3.561 9.528-4.533 30.041-37.925 59.038-2.216 1.925-3.105 4.965-2.276 7.782.829 2.816 3.226 4.889 6.131 5.305 7.626 1.092 15.202 1.456 21.918 1.456 13.019 0 22.802-1.369 23.412-1.456 4.099-.587 6.944-4.384 6.359-8.483-.586-4.099-4.382-6.954-8.481-6.366z"/><path d="m221.472 247.756c4.626-4.91 7.173-11.507 7.173-18.577 0-13.524-10.062-27.898-28.71-27.898-20.927 0-28.522 15.83-28.522 26.469 0 4.142 3.357 7.542 7.5 7.542 4.142 0 7.499-3.316 7.499-7.458.001-.033.1-3.308 1.895-6.29 2.133-3.542 5.937-5.264 11.629-5.264 10.823 0 13.71 8.107 13.71 12.898 0 3.23-1.098 6.175-3.09 8.291-2.319 2.461-5.724 3.709-10.117 3.709-4.143 0-7.5 3.358-7.5 7.5s3.357 7.5 7.5 7.5c9.738 0 13.207 6.199 13.207 12 0 3.354-1.222 6.597-3.354 8.898-2.459 2.654-5.943 4-10.356 4-5.692 0-9.496-1.722-11.629-5.264-1.635-2.715-1.862-5.673-1.89-6.206-.002-.037-.003-.063-.003-.075-.041-4.107-3.383-7.425-7.5-7.425-4.143 0-7.5 3.358-7.5 7.5 0 10.64 7.596 26.469 28.522 26.469 18.648 0 28.71-14.374 28.71-27.898 0-7.069-2.547-13.667-7.173-18.577-.286-.304-.591-.612-.916-.923.324-.308.629-.617.915-.921z"/><path d="m331.351 241.614c-12.747-1.145-25.764-.762-33.912-.296.132-9.941.717-21.252 3.311-23.786 1.832-1.79 9.084-1.62 17.479-1.423 3.461.082 7.384.173 11.783.173 4.143 0 7.5-3.358 7.5-7.5s-3.357-7.5-7.5-7.5c-4.224 0-8.053-.09-11.432-.169-13.223-.309-21.961-.515-28.312 5.688-7.091 6.927-7.867 18.865-7.867 42.595 0 2.119.896 4.139 2.468 5.561 1.57 1.422 3.673 2.115 5.778 1.902.178-.018 15.875-1.554 32.523-.768-.054 11.591-.38 20.248-2.4 22.257-2.008 1.996-11.452 1.942-22.396 1.879-2.417-.014-5.014-.029-7.804-.029-4.143 0-7.5 3.358-7.5 7.5s3.357 7.5 7.5 7.5l13.451.051c13.613 0 21.648-.621 27.324-6.264 6.835-6.795 6.835-17.17 6.835-39.901 0-3.883-2.963-7.123-6.829-7.47z"/><path d="m408.956 213.962c-4.62-9.327-13.147-13.86-26.07-13.86-8.842 0-15.703 2.908-20.393 8.645-6.937 8.484-8.343 22.301-4.3 42.24.766 3.774 4.263 6.351 8.096 5.973.178-.018 15.906-1.552 32.525-.768-.054 11.591-.38 20.247-2.4 22.256-2.008 1.997-11.456 1.941-22.396 1.879-2.417-.014-5.014-.029-7.804-.029-4.143 0-7.5 3.358-7.5 7.5s3.357 7.5 7.5 7.5c2.759 0 5.327.015 7.718.028 2.015.012 3.923.023 5.733.023 13.613 0 21.648-.621 27.324-6.264 6.835-6.795 6.835-17.17 6.835-39.901 0-15.678-.814-27.038-4.868-35.222zm-37.2 27.534c-2.151-14.897.438-20.918 2.35-23.256 1.102-1.347 3.211-3.139 8.78-3.139 10.33 0 15.067 1.084 15.828 26.067-10.594-.461-20.594-.067-26.958.328z"/><circle cx="256.009" cy="227.749" r="7.5"/><circle cx="256.009" cy="268.678" r="7.5"/></g></g></svg>